<mxfile host="app.diagrams.net" agent="Mozilla/5.0 (X11; Linux x86_64; rv:137.0) Gecko/20100101 Firefox/137.0" version="26.2.12">
  <diagram name="Página-1" id="lB6uuaJjfKBQThTT5O2M">
    <mxGraphModel dx="1058" dy="559" grid="1" gridSize="10" guides="1" tooltips="1" connect="1" arrows="1" fold="1" page="1" pageScale="1" pageWidth="827" pageHeight="1169" math="0" shadow="0">
      <root>
        <mxCell id="0" />
        <mxCell id="1" parent="0" />
        <mxCell id="GVdBxq70To4M7T33F03A-3" style="edgeStyle=orthogonalEdgeStyle;rounded=0;orthogonalLoop=1;jettySize=auto;html=1;entryX=0;entryY=0.5;entryDx=0;entryDy=0;" edge="1" parent="1" target="GVdBxq70To4M7T33F03A-2">
          <mxGeometry relative="1" as="geometry">
            <mxPoint x="110" y="300" as="targetPoint" />
            <mxPoint x="199.5" y="300.00800000000004" as="sourcePoint" />
            <Array as="points">
              <mxPoint x="240" y="300" />
              <mxPoint x="240" y="240" />
              <mxPoint x="120" y="240" />
              <mxPoint x="120" y="300" />
            </Array>
          </mxGeometry>
        </mxCell>
        <mxCell id="GVdBxq70To4M7T33F03A-6" style="edgeStyle=orthogonalEdgeStyle;rounded=0;orthogonalLoop=1;jettySize=auto;html=1;" edge="1" parent="1">
          <mxGeometry relative="1" as="geometry">
            <mxPoint x="280" y="300" as="targetPoint" />
            <mxPoint x="160" y="300" as="sourcePoint" />
          </mxGeometry>
        </mxCell>
        <mxCell id="GVdBxq70To4M7T33F03A-2" value="PC" style="whiteSpace=wrap;html=1;" vertex="1" parent="1">
          <mxGeometry x="160" y="280" width="40" height="40" as="geometry" />
        </mxCell>
        <mxCell id="GVdBxq70To4M7T33F03A-12" style="edgeStyle=orthogonalEdgeStyle;rounded=0;orthogonalLoop=1;jettySize=auto;html=1;exitX=1;exitY=0.25;exitDx=0;exitDy=0;entryX=0;entryY=0.125;entryDx=0;entryDy=0;entryPerimeter=0;" edge="1" parent="1" source="GVdBxq70To4M7T33F03A-7" target="GVdBxq70To4M7T33F03A-13">
          <mxGeometry relative="1" as="geometry">
            <mxPoint x="400" y="300.04761904761904" as="targetPoint" />
          </mxGeometry>
        </mxCell>
        <mxCell id="GVdBxq70To4M7T33F03A-14" style="edgeStyle=orthogonalEdgeStyle;rounded=0;orthogonalLoop=1;jettySize=auto;html=1;exitX=1;exitY=0.25;exitDx=0;exitDy=0;entryX=-0.006;entryY=0.373;entryDx=0;entryDy=0;entryPerimeter=0;" edge="1" parent="1" source="GVdBxq70To4M7T33F03A-7" target="GVdBxq70To4M7T33F03A-13">
          <mxGeometry relative="1" as="geometry">
            <mxPoint x="400" y="400" as="targetPoint" />
            <Array as="points">
              <mxPoint x="400" y="300" />
              <mxPoint x="400" y="340" />
              <mxPoint x="449" y="340" />
            </Array>
          </mxGeometry>
        </mxCell>
        <mxCell id="GVdBxq70To4M7T33F03A-15" style="edgeStyle=orthogonalEdgeStyle;rounded=0;orthogonalLoop=1;jettySize=auto;html=1;exitX=1;exitY=0.25;exitDx=0;exitDy=0;entryX=0;entryY=0.25;entryDx=0;entryDy=0;" edge="1" parent="1" source="GVdBxq70To4M7T33F03A-7" target="GVdBxq70To4M7T33F03A-13">
          <mxGeometry relative="1" as="geometry">
            <mxPoint x="440" y="350" as="targetPoint" />
            <Array as="points">
              <mxPoint x="400" y="300" />
              <mxPoint x="400" y="320" />
            </Array>
          </mxGeometry>
        </mxCell>
        <mxCell id="GVdBxq70To4M7T33F03A-20" style="edgeStyle=orthogonalEdgeStyle;rounded=0;orthogonalLoop=1;jettySize=auto;html=1;exitX=1;exitY=0.25;exitDx=0;exitDy=0;" edge="1" parent="1" source="GVdBxq70To4M7T33F03A-7">
          <mxGeometry relative="1" as="geometry">
            <mxPoint x="520" y="520" as="targetPoint" />
            <Array as="points">
              <mxPoint x="400" y="300" />
              <mxPoint x="400" y="520" />
            </Array>
          </mxGeometry>
        </mxCell>
        <mxCell id="GVdBxq70To4M7T33F03A-7" value="&lt;font style=&quot;font-size: 9px;&quot;&gt;MEMÓRIA DE INSTRUÇÕES&lt;/font&gt;" style="whiteSpace=wrap;html=1;" vertex="1" parent="1">
          <mxGeometry x="280" y="280" width="80" height="80" as="geometry" />
        </mxCell>
        <mxCell id="GVdBxq70To4M7T33F03A-9" value="" style="shape=trapezoid;perimeter=trapezoidPerimeter;whiteSpace=wrap;html=1;fixedSize=1;rotation=-90;" vertex="1" parent="1">
          <mxGeometry x="149.37" y="223.77" width="50" height="31.24" as="geometry" />
        </mxCell>
        <mxCell id="GVdBxq70To4M7T33F03A-11" value="&lt;div&gt;&lt;font style=&quot;font-size: 6px;&quot;&gt;PC + 1&lt;/font&gt;&lt;/div&gt;&lt;div&gt;&lt;font style=&quot;font-size: 6px;&quot;&gt;&lt;br&gt;&lt;/font&gt;&lt;/div&gt;" style="text;html=1;align=center;verticalAlign=middle;resizable=0;points=[];autosize=1;strokeColor=none;fillColor=none;" vertex="1" parent="1">
          <mxGeometry x="154.37" y="223.77" width="40" height="40" as="geometry" />
        </mxCell>
        <mxCell id="GVdBxq70To4M7T33F03A-19" style="edgeStyle=orthogonalEdgeStyle;rounded=0;orthogonalLoop=1;jettySize=auto;html=1;exitX=1;exitY=0.25;exitDx=0;exitDy=0;" edge="1" parent="1" source="GVdBxq70To4M7T33F03A-13">
          <mxGeometry relative="1" as="geometry">
            <mxPoint x="840" y="320" as="targetPoint" />
          </mxGeometry>
        </mxCell>
        <mxCell id="GVdBxq70To4M7T33F03A-25" style="edgeStyle=orthogonalEdgeStyle;rounded=0;orthogonalLoop=1;jettySize=auto;html=1;exitX=1;exitY=0.5;exitDx=0;exitDy=0;" edge="1" parent="1" source="GVdBxq70To4M7T33F03A-13">
          <mxGeometry relative="1" as="geometry">
            <mxPoint x="720" y="360" as="targetPoint" />
            <mxPoint x="620" y="360" as="sourcePoint" />
          </mxGeometry>
        </mxCell>
        <mxCell id="GVdBxq70To4M7T33F03A-36" style="edgeStyle=orthogonalEdgeStyle;rounded=0;orthogonalLoop=1;jettySize=auto;html=1;exitX=1;exitY=0.5;exitDx=0;exitDy=0;entryX=0;entryY=0.75;entryDx=0;entryDy=0;" edge="1" parent="1" source="GVdBxq70To4M7T33F03A-13" target="GVdBxq70To4M7T33F03A-28">
          <mxGeometry relative="1" as="geometry">
            <mxPoint x="980" y="410" as="targetPoint" />
            <Array as="points">
              <mxPoint x="640" y="360" />
              <mxPoint x="640" y="440" />
            </Array>
          </mxGeometry>
        </mxCell>
        <mxCell id="GVdBxq70To4M7T33F03A-13" value="&lt;font style=&quot;font-size: 5px;&quot;&gt;BANCO DE REGISTRADORES&lt;/font&gt;" style="whiteSpace=wrap;html=1;" vertex="1" parent="1">
          <mxGeometry x="450" y="280" width="160" height="160" as="geometry" />
        </mxCell>
        <mxCell id="GVdBxq70To4M7T33F03A-29" style="edgeStyle=orthogonalEdgeStyle;rounded=0;orthogonalLoop=1;jettySize=auto;html=1;entryX=0;entryY=0.25;entryDx=0;entryDy=0;exitX=0.618;exitY=0.971;exitDx=0;exitDy=0;exitPerimeter=0;" edge="1" parent="1" source="GVdBxq70To4M7T33F03A-17" target="GVdBxq70To4M7T33F03A-28">
          <mxGeometry relative="1" as="geometry">
            <mxPoint x="990" y="370" as="targetPoint" />
            <Array as="points">
              <mxPoint x="898" y="340" />
            </Array>
          </mxGeometry>
        </mxCell>
        <mxCell id="GVdBxq70To4M7T33F03A-17" value="" style="shape=trapezoid;perimeter=trapezoidPerimeter;whiteSpace=wrap;html=1;fixedSize=1;rotation=-90;" vertex="1" parent="1">
          <mxGeometry x="810" y="320" width="120" height="60" as="geometry" />
        </mxCell>
        <mxCell id="GVdBxq70To4M7T33F03A-22" value="" style="ellipse;whiteSpace=wrap;html=1;rotation=90;" vertex="1" parent="1">
          <mxGeometry x="500" y="480" width="120" height="80" as="geometry" />
        </mxCell>
        <mxCell id="GVdBxq70To4M7T33F03A-24" style="edgeStyle=orthogonalEdgeStyle;rounded=0;orthogonalLoop=1;jettySize=auto;html=1;entryX=0.2;entryY=0;entryDx=0;entryDy=0;entryPerimeter=0;" edge="1" parent="1" source="GVdBxq70To4M7T33F03A-23" target="GVdBxq70To4M7T33F03A-26">
          <mxGeometry relative="1" as="geometry">
            <mxPoint x="680" y="400" as="targetPoint" />
            <Array as="points">
              <mxPoint x="680" y="520" />
              <mxPoint x="680" y="400" />
            </Array>
          </mxGeometry>
        </mxCell>
        <mxCell id="GVdBxq70To4M7T33F03A-23" value="Sign extend" style="text;html=1;align=center;verticalAlign=middle;resizable=0;points=[];autosize=1;strokeColor=none;fillColor=none;" vertex="1" parent="1">
          <mxGeometry x="515" y="505" width="90" height="30" as="geometry" />
        </mxCell>
        <mxCell id="GVdBxq70To4M7T33F03A-27" style="edgeStyle=orthogonalEdgeStyle;rounded=0;orthogonalLoop=1;jettySize=auto;html=1;" edge="1" parent="1" source="GVdBxq70To4M7T33F03A-26">
          <mxGeometry relative="1" as="geometry">
            <mxPoint x="840" y="377.5" as="targetPoint" />
          </mxGeometry>
        </mxCell>
        <mxCell id="GVdBxq70To4M7T33F03A-37" style="edgeStyle=orthogonalEdgeStyle;rounded=0;orthogonalLoop=1;jettySize=auto;html=1;exitX=1;exitY=0.25;exitDx=0;exitDy=0;entryX=0.75;entryY=0;entryDx=0;entryDy=0;" edge="1" parent="1" source="GVdBxq70To4M7T33F03A-28" target="GVdBxq70To4M7T33F03A-34">
          <mxGeometry relative="1" as="geometry">
            <Array as="points">
              <mxPoint x="1120" y="349" />
            </Array>
          </mxGeometry>
        </mxCell>
        <mxCell id="GVdBxq70To4M7T33F03A-28" value="&lt;font style=&quot;font-size: 9px;&quot;&gt;MEMÓRIA DE DADOS&lt;/font&gt;" style="whiteSpace=wrap;html=1;" vertex="1" parent="1">
          <mxGeometry x="1000" y="290" width="120" height="200" as="geometry" />
        </mxCell>
        <mxCell id="GVdBxq70To4M7T33F03A-32" value="" style="group" vertex="1" connectable="0" parent="1">
          <mxGeometry x="715" y="340" width="40" height="75" as="geometry" />
        </mxCell>
        <mxCell id="GVdBxq70To4M7T33F03A-26" value="" style="rounded=1;whiteSpace=wrap;html=1;rotation=-90;" vertex="1" parent="GVdBxq70To4M7T33F03A-32">
          <mxGeometry x="-17.5" y="22.5" width="75" height="30" as="geometry" />
        </mxCell>
        <mxCell id="GVdBxq70To4M7T33F03A-31" value="&lt;font style=&quot;font-size: 8px;&quot;&gt;MUX&lt;/font&gt;" style="text;html=1;align=center;verticalAlign=middle;resizable=0;points=[];autosize=1;strokeColor=none;fillColor=none;" vertex="1" parent="GVdBxq70To4M7T33F03A-32">
          <mxGeometry y="20" width="40" height="30" as="geometry" />
        </mxCell>
        <mxCell id="GVdBxq70To4M7T33F03A-33" value="" style="group" vertex="1" connectable="0" parent="1">
          <mxGeometry x="1221" y="330" width="40" height="75" as="geometry" />
        </mxCell>
        <mxCell id="GVdBxq70To4M7T33F03A-34" value="" style="rounded=1;whiteSpace=wrap;html=1;rotation=-90;" vertex="1" parent="GVdBxq70To4M7T33F03A-33">
          <mxGeometry x="-17.5" y="22.5" width="75" height="30" as="geometry" />
        </mxCell>
        <mxCell id="GVdBxq70To4M7T33F03A-35" value="&lt;font style=&quot;font-size: 8px;&quot;&gt;MUX&lt;/font&gt;" style="text;html=1;align=center;verticalAlign=middle;resizable=0;points=[];autosize=1;strokeColor=none;fillColor=none;" vertex="1" parent="GVdBxq70To4M7T33F03A-33">
          <mxGeometry y="20" width="40" height="30" as="geometry" />
        </mxCell>
        <mxCell id="GVdBxq70To4M7T33F03A-30" style="edgeStyle=orthogonalEdgeStyle;rounded=0;orthogonalLoop=1;jettySize=auto;html=1;exitX=0.5;exitY=1;exitDx=0;exitDy=0;entryX=0.15;entryY=0.959;entryDx=0;entryDy=0;entryPerimeter=0;" edge="1" parent="1" source="GVdBxq70To4M7T33F03A-17" target="GVdBxq70To4M7T33F03A-35">
          <mxGeometry relative="1" as="geometry">
            <mxPoint x="1200" y="400" as="targetPoint" />
            <mxPoint x="920" y="270" as="sourcePoint" />
            <Array as="points">
              <mxPoint x="900" y="340" />
              <mxPoint x="960" y="340" />
              <mxPoint x="960" y="560" />
              <mxPoint x="1200" y="560" />
              <mxPoint x="1200" y="379" />
            </Array>
          </mxGeometry>
        </mxCell>
        <mxCell id="GVdBxq70To4M7T33F03A-38" value="" style="shape=waypoint;sketch=0;size=6;pointerEvents=1;points=[];fillColor=none;resizable=0;rotatable=0;perimeter=centerPerimeter;snapToPoint=1;" vertex="1" parent="1">
          <mxGeometry x="630" y="350" width="20" height="20" as="geometry" />
        </mxCell>
        <mxCell id="GVdBxq70To4M7T33F03A-41" value="" style="shape=waypoint;sketch=0;size=6;pointerEvents=1;points=[];fillColor=none;resizable=0;rotatable=0;perimeter=centerPerimeter;snapToPoint=1;" vertex="1" parent="1">
          <mxGeometry x="950" y="330" width="20" height="20" as="geometry" />
        </mxCell>
        <mxCell id="GVdBxq70To4M7T33F03A-43" style="edgeStyle=orthogonalEdgeStyle;rounded=0;orthogonalLoop=1;jettySize=auto;html=1;entryX=0;entryY=0.75;entryDx=0;entryDy=0;" edge="1" parent="1">
          <mxGeometry relative="1" as="geometry">
            <mxPoint x="450" y="395" as="targetPoint" />
            <mxPoint x="1261.0000000000002" y="359.99613899613905" as="sourcePoint" />
            <Array as="points">
              <mxPoint x="1280" y="360" />
              <mxPoint x="1280" y="625" />
              <mxPoint x="430" y="625" />
              <mxPoint x="430" y="395" />
            </Array>
          </mxGeometry>
        </mxCell>
        <mxCell id="GVdBxq70To4M7T33F03A-44" value="" style="whiteSpace=wrap;html=1;" vertex="1" parent="1">
          <mxGeometry x="120" y="1180" width="550" height="460" as="geometry" />
        </mxCell>
        <mxCell id="GVdBxq70To4M7T33F03A-45" value="ULA" style="text;html=1;align=center;verticalAlign=middle;resizable=0;points=[];autosize=1;strokeColor=none;fillColor=none;" vertex="1" parent="1">
          <mxGeometry x="370" y="1150" width="50" height="30" as="geometry" />
        </mxCell>
        <mxCell id="GVdBxq70To4M7T33F03A-46" value="ULA" style="text;html=1;align=center;verticalAlign=middle;resizable=0;points=[];autosize=1;strokeColor=none;fillColor=none;" vertex="1" parent="1">
          <mxGeometry x="845" y="335" width="50" height="30" as="geometry" />
        </mxCell>
        <mxCell id="GVdBxq70To4M7T33F03A-47" value="+" style="whiteSpace=wrap;html=1;" vertex="1" parent="1">
          <mxGeometry x="380" y="1220" width="30" height="30" as="geometry" />
        </mxCell>
        <mxCell id="GVdBxq70To4M7T33F03A-48" value="NOT" style="whiteSpace=wrap;html=1;" vertex="1" parent="1">
          <mxGeometry x="380" y="1270" width="30" height="30" as="geometry" />
        </mxCell>
        <mxCell id="GVdBxq70To4M7T33F03A-49" value="AND" style="whiteSpace=wrap;html=1;" vertex="1" parent="1">
          <mxGeometry x="380" y="1320" width="30" height="30" as="geometry" />
        </mxCell>
        <mxCell id="GVdBxq70To4M7T33F03A-50" value="OR" style="whiteSpace=wrap;html=1;" vertex="1" parent="1">
          <mxGeometry x="380" y="1370" width="30" height="30" as="geometry" />
        </mxCell>
        <mxCell id="GVdBxq70To4M7T33F03A-52" value="XOR" style="whiteSpace=wrap;html=1;" vertex="1" parent="1">
          <mxGeometry x="380" y="1420" width="30" height="30" as="geometry" />
        </mxCell>
        <mxCell id="GVdBxq70To4M7T33F03A-53" value="-" style="whiteSpace=wrap;html=1;" vertex="1" parent="1">
          <mxGeometry x="380" y="1470" width="30" height="30" as="geometry" />
        </mxCell>
        <mxCell id="GVdBxq70To4M7T33F03A-54" value="SL" style="whiteSpace=wrap;html=1;" vertex="1" parent="1">
          <mxGeometry x="380" y="1520" width="30" height="30" as="geometry" />
        </mxCell>
        <mxCell id="GVdBxq70To4M7T33F03A-55" value="SR" style="whiteSpace=wrap;html=1;" vertex="1" parent="1">
          <mxGeometry x="380" y="1570" width="30" height="30" as="geometry" />
        </mxCell>
        <mxCell id="GVdBxq70To4M7T33F03A-58" style="edgeStyle=orthogonalEdgeStyle;rounded=0;orthogonalLoop=1;jettySize=auto;html=1;" edge="1" parent="1" source="GVdBxq70To4M7T33F03A-56">
          <mxGeometry relative="1" as="geometry">
            <mxPoint x="740" y="1410" as="targetPoint" />
          </mxGeometry>
        </mxCell>
        <mxCell id="GVdBxq70To4M7T33F03A-56" value="" style="shape=trapezoid;perimeter=trapezoidPerimeter;whiteSpace=wrap;html=1;fixedSize=1;rotation=90;" vertex="1" parent="1">
          <mxGeometry x="340" y="1380" width="370" height="60" as="geometry" />
        </mxCell>
        <mxCell id="GVdBxq70To4M7T33F03A-59" value="DEMUX" style="text;html=1;align=center;verticalAlign=middle;resizable=0;points=[];autosize=1;strokeColor=none;fillColor=none;" vertex="1" parent="1">
          <mxGeometry x="490" y="1395" width="70" height="30" as="geometry" />
        </mxCell>
      </root>
    </mxGraphModel>
  </diagram>
</mxfile>
